<svg width="160" height="40" viewBox="0 0 160 40" fill="none" xmlns="http://www.w3.org/2000/svg">
<path d="M0 0H53.3333L46.6667 13.3333H6.66667L0 0Z" fill="black"/>
<path d="M6.66667 26.6667H46.6667L53.3333 40H0L6.66667 26.6667Z" fill="black"/>
<path d="M10 0H0V40H10V0Z" fill="black"/>
<path d="M41.6667 10H11.6667C8.90524 10 6.66667 12.2386 6.66667 15V25C6.66667 27.7614 8.90524 30 11.6667 30H41.6667C44.4281 30 46.6667 27.7614 46.6667 25V15C46.6667 12.2386 44.4281 10 41.6667 10Z" fill="white"/>
<path d="M39.1667 15H14.1667C12.786 15 11.6667 16.1193 11.6667 17.5V22.5C11.6667 23.8807 12.786 25 14.1667 25H39.1667C40.5474 25 41.6667 23.8807 41.6667 22.5V17.5C41.6667 16.1193 40.5474 15 39.1667 15Z" fill="black"/>
<path d="M71.6452 15.8333H79.0553V14.5313H73.113V10.4119H78.5818V9.10983H73.113V5.01421H78.9606V3.71212H71.6452V15.8333ZM88.2725 3.71212V15.8333H89.6458V6.62405H89.7642L93.5525 15.8333H94.8783L98.6658 6.62405H98.7842V15.8333H100.158V3.71212H98.405L94.2858 13.7737H94.1442L90.025 3.71212H88.2725ZM109.767 15.8333H111.235V11.4063H113.887C116.709 11.4063 117.982 9.68983 117.982 7.54735C117.982 5.40483 116.709 3.71212 113.862 3.71212H109.767V15.8333ZM111.235 10.1042V5.01421H113.815C115.786 5.01421 116.538 6.09138 116.538 7.54735C116.538 9.00333 115.786 10.1042 113.839 10.1042H111.235ZM126.35 5.01421H130.162V15.8333H131.629V5.01421H135.441V3.71212H126.35V5.01421ZM143.332 3.71212L147.711 10.8381V15.8333H149.179V10.8381L153.558 3.71212H151.878L148.516 9.37025H148.374L145.012 3.71212H143.332Z" fill="black"/>
<path d="M74.2707 35.8333L75.1703 33.0693H79.5441L80.4438 35.8333H83.1899L79.0114 23.7121H75.7089L71.5245 35.8333H74.2707ZM75.8213 31.0689L77.3128 26.482H77.4075L78.899 31.0689H75.8213ZM97.1492 35.8333H99.7117V31.5365H101.582L103.878 35.8333H106.707L104.132 31.1222C105.512 30.5303 106.275 29.3288 106.275 27.6717C106.275 25.2627 104.683 23.7121 101.931 23.7121H97.1492V35.8333ZM99.7117 29.4768V25.8073H101.44C102.919 25.8073 103.636 26.4642 103.636 27.6717C103.636 28.8731 102.919 29.4768 101.452 29.4768H99.7117ZM120.587 35.8333H128.778V33.7204H123.149V30.8262H128.334V28.7133H123.149V25.8251H128.754V23.7121H120.587V35.8333ZM145.381 35.8333L146.28 33.0693H150.654L151.554 35.8333H154.3L150.122 23.7121H146.819L142.634 35.8333H145.381ZM146.932 31.0689L148.422 26.482H148.517L150.009 31.0689H146.932Z" fill="black"/>
</svg>
